<svg height="4366" width="720" xmlns="http://www.w3.org/2000/svg">
<rect height="4366" fill="#555" width="720"></rect>
<text fill="#7f7" font-family="Courier New" font-size="12" xml:space="preserve">
<tspan x="10" y="26">52 megabytes installed</tspan>
<tspan x="10" y="42"></tspan>
<tspan x="10" y="58">node_modules</tspan>
<tspan x="10" y="74">└─┬ jscodeshift@0.3.30 </tspan>
<tspan x="10" y="90">  ├── async@1.5.2 </tspan>
<tspan x="10" y="106">  ├─┬ babel-core@5.8.38 </tspan>
<tspan x="10" y="122">  │ ├── babel-plugin-constant-folding@1.0.1 </tspan>
<tspan x="10" y="138">  │ ├── babel-plugin-dead-code-elimination@1.0.2 </tspan>
<tspan x="10" y="154">  │ ├── babel-plugin-eval@1.0.1 </tspan>
<tspan x="10" y="170">  │ ├── babel-plugin-inline-environment-variables@1.0.1 </tspan>
<tspan x="10" y="186">  │ ├── babel-plugin-jscript@1.0.4 </tspan>
<tspan x="10" y="202">  │ ├── babel-plugin-member-expression-literals@1.0.1 </tspan>
<tspan x="10" y="218">  │ ├── babel-plugin-property-literals@1.0.1 </tspan>
<tspan x="10" y="234">  │ ├─┬ babel-plugin-proto-to-assign@1.0.4 </tspan>
<tspan x="10" y="250">  │ │ └── lodash@3.10.1 </tspan>
<tspan x="10" y="266">  │ ├── babel-plugin-react-constant-elements@1.0.3 </tspan>
<tspan x="10" y="282">  │ ├── babel-plugin-react-display-name@1.0.3 </tspan>
<tspan x="10" y="298">  │ ├── babel-plugin-remove-console@1.0.1 </tspan>
<tspan x="10" y="314">  │ ├── babel-plugin-remove-debugger@1.0.1 </tspan>
<tspan x="10" y="330">  │ ├── babel-plugin-runtime@1.0.7 </tspan>
<tspan x="10" y="346">  │ ├─┬ babel-plugin-undeclared-variables-check@1.0.2 </tspan>
<tspan x="10" y="362">  │ │ └── leven@1.0.2 </tspan>
<tspan x="10" y="378">  │ ├── babel-plugin-undefined-to-void@1.1.6 </tspan>
<tspan x="10" y="394">  │ ├── babylon@5.8.38 </tspan>
<tspan x="10" y="410">  │ ├── bluebird@2.11.0 </tspan>
<tspan x="10" y="426">  │ ├─┬ chalk@1.1.3 </tspan>
<tspan x="10" y="442">  │ │ ├── ansi-styles@2.2.1 </tspan>
<tspan x="10" y="458">  │ │ ├── escape-string-regexp@1.0.5 </tspan>
<tspan x="10" y="474">  │ │ ├─┬ has-ansi@2.0.0 </tspan>
<tspan x="10" y="490">  │ │ │ └── ansi-regex@2.1.1 </tspan>
<tspan x="10" y="506">  │ │ ├── strip-ansi@3.0.1 </tspan>
<tspan x="10" y="522">  │ │ └── supports-color@2.0.0 </tspan>
<tspan x="10" y="538">  │ ├── convert-source-map@1.5.0 </tspan>
<tspan x="10" y="554">  │ ├── core-js@1.2.7 </tspan>
<tspan x="10" y="570">  │ ├─┬ debug@2.6.4 </tspan>
<tspan x="10" y="586">  │ │ └── ms@0.7.3 </tspan>
<tspan x="10" y="602">  │ ├─┬ detect-indent@3.0.1 </tspan>
<tspan x="10" y="618">  │ │ ├── get-stdin@4.0.1 </tspan>
<tspan x="10" y="634">  │ │ └── minimist@1.2.0 </tspan>
<tspan x="10" y="650">  │ ├── esutils@2.0.2 </tspan>
<tspan x="10" y="666">  │ ├── fs-readdir-recursive@0.1.2 </tspan>
<tspan x="10" y="682">  │ ├── globals@6.4.1 </tspan>
<tspan x="10" y="698">  │ ├─┬ home-or-tmp@1.0.0 </tspan>
<tspan x="10" y="714">  │ │ └── user-home@1.1.1 </tspan>
<tspan x="10" y="730">  │ ├─┬ is-integer@1.0.6 </tspan>
<tspan x="10" y="746">  │ │ └─┬ is-finite@1.0.2 </tspan>
<tspan x="10" y="762">  │ │   └── number-is-nan@1.0.1 </tspan>
<tspan x="10" y="778">  │ ├── js-tokens@1.0.1 </tspan>
<tspan x="10" y="794">  │ ├── json5@0.4.0 </tspan>
<tspan x="10" y="810">  │ ├── lodash@3.10.1 </tspan>
<tspan x="10" y="826">  │ ├─┬ minimatch@2.0.10 </tspan>
<tspan x="10" y="842">  │ │ └─┬ brace-expansion@1.1.7 </tspan>
<tspan x="10" y="858">  │ │   ├── balanced-match@0.4.2 </tspan>
<tspan x="10" y="874">  │ │   └── concat-map@0.0.1 </tspan>
<tspan x="10" y="890">  │ ├─┬ output-file-sync@1.1.2 </tspan>
<tspan x="10" y="906">  │ │ └── object-assign@4.1.1 </tspan>
<tspan x="10" y="922">  │ ├── path-exists@1.0.0 </tspan>
<tspan x="10" y="938">  │ ├── path-is-absolute@1.0.1 </tspan>
<tspan x="10" y="954">  │ ├── private@0.1.7 </tspan>
<tspan x="10" y="970">  │ ├─┬ regenerator@0.8.40 </tspan>
<tspan x="10" y="986">  │ │ ├─┬ commoner@0.10.8 </tspan>
<tspan x="10" y="1002">  │ │ │ ├─┬ commander@2.9.0 </tspan>
<tspan x="10" y="1018">  │ │ │ │ └── graceful-readlink@1.0.1 </tspan>
<tspan x="10" y="1034">  │ │ │ ├─┬ detective@4.5.0 </tspan>
<tspan x="10" y="1050">  │ │ │ │ ├── acorn@4.0.11 </tspan>
<tspan x="10" y="1066">  │ │ │ │ └── defined@1.0.0 </tspan>
<tspan x="10" y="1082">  │ │ │ ├─┬ glob@5.0.15 </tspan>
<tspan x="10" y="1098">  │ │ │ │ ├─┬ inflight@1.0.6 </tspan>
<tspan x="10" y="1114">  │ │ │ │ │ └── wrappy@1.0.2 </tspan>
<tspan x="10" y="1130">  │ │ │ │ ├── inherits@2.0.3 </tspan>
<tspan x="10" y="1146">  │ │ │ │ └── once@1.4.0 </tspan>
<tspan x="10" y="1162">  │ │ │ ├── iconv-lite@0.4.15 </tspan>
<tspan x="10" y="1178">  │ │ │ └── q@1.5.0 </tspan>
<tspan x="10" y="1194">  │ │ ├─┬ defs@1.1.1 </tspan>
<tspan x="10" y="1210">  │ │ │ ├─┬ alter@0.2.0 </tspan>
<tspan x="10" y="1226">  │ │ │ │ └── stable@0.1.6 </tspan>
<tspan x="10" y="1242">  │ │ │ ├── ast-traverse@0.1.1 </tspan>
<tspan x="10" y="1258">  │ │ │ ├── breakable@1.0.0 </tspan>
<tspan x="10" y="1274">  │ │ │ ├── simple-fmt@0.1.0 </tspan>
<tspan x="10" y="1290">  │ │ │ ├── simple-is@0.2.0 </tspan>
<tspan x="10" y="1306">  │ │ │ ├── stringmap@0.2.2 </tspan>
<tspan x="10" y="1322">  │ │ │ ├── stringset@0.2.1 </tspan>
<tspan x="10" y="1338">  │ │ │ ├── tryor@0.1.2 </tspan>
<tspan x="10" y="1354">  │ │ │ └─┬ yargs@3.27.0 </tspan>
<tspan x="10" y="1370">  │ │ │   ├── camelcase@1.2.1 </tspan>
<tspan x="10" y="1386">  │ │ │   ├─┬ cliui@2.1.0 </tspan>
<tspan x="10" y="1402">  │ │ │   │ ├─┬ center-align@0.1.3 </tspan>
<tspan x="10" y="1418">  │ │ │   │ │ ├─┬ align-text@0.1.4 </tspan>
<tspan x="10" y="1434">  │ │ │   │ │ │ └── longest@1.0.1 </tspan>
<tspan x="10" y="1450">  │ │ │   │ │ └── lazy-cache@1.0.4 </tspan>
<tspan x="10" y="1466">  │ │ │   │ ├── right-align@0.1.3 </tspan>
<tspan x="10" y="1482">  │ │ │   │ └── wordwrap@0.0.2 </tspan>
<tspan x="10" y="1498">  │ │ │   ├── decamelize@1.2.0 </tspan>
<tspan x="10" y="1514">  │ │ │   ├─┬ os-locale@1.4.0 </tspan>
<tspan x="10" y="1530">  │ │ │   │ └─┬ lcid@1.0.0 </tspan>
<tspan x="10" y="1546">  │ │ │   │   └── invert-kv@1.0.0 </tspan>
<tspan x="10" y="1562">  │ │ │   ├── window-size@0.1.4 </tspan>
<tspan x="10" y="1578">  │ │ │   └── y18n@3.2.1 </tspan>
<tspan x="10" y="1594">  │ │ ├── esprima-fb@15001.1001.0-dev-harmony-fb </tspan>
<tspan x="10" y="1610">  │ │ ├─┬ recast@0.10.33 </tspan>
<tspan x="10" y="1626">  │ │ │ └── ast-types@0.8.12 </tspan>
<tspan x="10" y="1642">  │ │ └── through@2.3.8 </tspan>
<tspan x="10" y="1658">  │ ├─┬ regexpu@1.3.0 </tspan>
<tspan x="10" y="1674">  │ │ ├── esprima@2.7.3 </tspan>
<tspan x="10" y="1690">  │ │ ├─┬ recast@0.10.43 </tspan>
<tspan x="10" y="1706">  │ │ │ └── ast-types@0.8.15 </tspan>
<tspan x="10" y="1722">  │ │ ├── regenerate@1.3.2 </tspan>
<tspan x="10" y="1738">  │ │ ├── regjsgen@0.2.0 </tspan>
<tspan x="10" y="1754">  │ │ └─┬ regjsparser@0.1.5 </tspan>
<tspan x="10" y="1770">  │ │   └── jsesc@0.5.0 </tspan>
<tspan x="10" y="1786">  │ ├── repeating@1.1.3 </tspan>
<tspan x="10" y="1802">  │ ├─┬ resolve@1.3.3 </tspan>
<tspan x="10" y="1818">  │ │ └── path-parse@1.0.5 </tspan>
<tspan x="10" y="1834">  │ ├── shebang-regex@1.0.0 </tspan>
<tspan x="10" y="1850">  │ ├── slash@1.0.0 </tspan>
<tspan x="10" y="1866">  │ ├── source-map@0.5.6 </tspan>
<tspan x="10" y="1882">  │ ├─┬ source-map-support@0.2.10 </tspan>
<tspan x="10" y="1898">  │ │ └─┬ source-map@0.1.32 </tspan>
<tspan x="10" y="1914">  │ │   └── amdefine@1.0.1 </tspan>
<tspan x="10" y="1930">  │ ├── to-fast-properties@1.0.2 </tspan>
<tspan x="10" y="1946">  │ ├── trim-right@1.0.1 </tspan>
<tspan x="10" y="1962">  │ └── try-resolve@1.0.1 </tspan>
<tspan x="10" y="1978">  ├─┬ babel-plugin-transform-flow-strip-types@6.22.0 </tspan>
<tspan x="10" y="1994">  │ ├── babel-plugin-syntax-flow@6.18.0 </tspan>
<tspan x="10" y="2010">  │ └─┬ babel-runtime@6.23.0 </tspan>
<tspan x="10" y="2026">  │   ├── core-js@2.4.1 </tspan>
<tspan x="10" y="2042">  │   └── regenerator-runtime@0.10.3 </tspan>
<tspan x="10" y="2058">  ├─┬ babel-preset-es2015@6.24.1 </tspan>
<tspan x="10" y="2074">  │ ├── babel-plugin-check-es2015-constants@6.22.0 </tspan>
<tspan x="10" y="2090">  │ ├── babel-plugin-transform-es2015-arrow-functions@6.22.0 </tspan>
<tspan x="10" y="2106">  │ ├── babel-plugin-transform-es2015-block-scoped-functions@6.22.0 </tspan>
<tspan x="10" y="2122">  │ ├─┬ babel-plugin-transform-es2015-block-scoping@6.24.1 </tspan>
<tspan x="10" y="2138">  │ │ ├── babel-template@6.24.1 </tspan>
<tspan x="10" y="2154">  │ │ ├─┬ babel-traverse@6.24.1 </tspan>
<tspan x="10" y="2170">  │ │ │ ├── globals@9.17.0 </tspan>
<tspan x="10" y="2186">  │ │ │ └─┬ invariant@2.2.2 </tspan>
<tspan x="10" y="2202">  │ │ │   └─┬ loose-envify@1.3.1 </tspan>
<tspan x="10" y="2218">  │ │ │     └── js-tokens@3.0.1 </tspan>
<tspan x="10" y="2234">  │ │ └── babel-types@6.24.1 </tspan>
<tspan x="10" y="2250">  │ ├─┬ babel-plugin-transform-es2015-classes@6.24.1 </tspan>
<tspan x="10" y="2266">  │ │ ├── babel-helper-define-map@6.24.1 </tspan>
<tspan x="10" y="2282">  │ │ ├── babel-helper-function-name@6.24.1 </tspan>
<tspan x="10" y="2298">  │ │ ├── babel-helper-optimise-call-expression@6.24.1 </tspan>
<tspan x="10" y="2314">  │ │ ├── babel-helper-replace-supers@6.24.1 </tspan>
<tspan x="10" y="2330">  │ │ └── babel-messages@6.23.0 </tspan>
<tspan x="10" y="2346">  │ ├── babel-plugin-transform-es2015-computed-properties@6.24.1 </tspan>
<tspan x="10" y="2362">  │ ├── babel-plugin-transform-es2015-destructuring@6.23.0 </tspan>
<tspan x="10" y="2378">  │ ├── babel-plugin-transform-es2015-duplicate-keys@6.24.1 </tspan>
<tspan x="10" y="2394">  │ ├── babel-plugin-transform-es2015-for-of@6.23.0 </tspan>
<tspan x="10" y="2410">  │ ├── babel-plugin-transform-es2015-function-name@6.24.1 </tspan>
<tspan x="10" y="2426">  │ ├── babel-plugin-transform-es2015-literals@6.22.0 </tspan>
<tspan x="10" y="2442">  │ ├── babel-plugin-transform-es2015-modules-amd@6.24.1 </tspan>
<tspan x="10" y="2458">  │ ├─┬ babel-plugin-transform-es2015-modules-commonjs@6.24.1 </tspan>
<tspan x="10" y="2474">  │ │ └── babel-plugin-transform-strict-mode@6.24.1 </tspan>
<tspan x="10" y="2490">  │ ├─┬ babel-plugin-transform-es2015-modules-systemjs@6.24.1 </tspan>
<tspan x="10" y="2506">  │ │ └── babel-helper-hoist-variables@6.24.1 </tspan>
<tspan x="10" y="2522">  │ ├── babel-plugin-transform-es2015-modules-umd@6.24.1 </tspan>
<tspan x="10" y="2538">  │ ├── babel-plugin-transform-es2015-object-super@6.24.1 </tspan>
<tspan x="10" y="2554">  │ ├─┬ babel-plugin-transform-es2015-parameters@6.24.1 </tspan>
<tspan x="10" y="2570">  │ │ ├── babel-helper-call-delegate@6.24.1 </tspan>
<tspan x="10" y="2586">  │ │ └── babel-helper-get-function-arity@6.24.1 </tspan>
<tspan x="10" y="2602">  │ ├── babel-plugin-transform-es2015-shorthand-properties@6.24.1 </tspan>
<tspan x="10" y="2618">  │ ├── babel-plugin-transform-es2015-spread@6.22.0 </tspan>
<tspan x="10" y="2634">  │ ├─┬ babel-plugin-transform-es2015-sticky-regex@6.24.1 </tspan>
<tspan x="10" y="2650">  │ │ └── babel-helper-regex@6.24.1 </tspan>
<tspan x="10" y="2666">  │ ├── babel-plugin-transform-es2015-template-literals@6.22.0 </tspan>
<tspan x="10" y="2682">  │ ├── babel-plugin-transform-es2015-typeof-symbol@6.23.0 </tspan>
<tspan x="10" y="2698">  │ ├─┬ babel-plugin-transform-es2015-unicode-regex@6.24.1 </tspan>
<tspan x="10" y="2714">  │ │ └── regexpu-core@2.0.0 </tspan>
<tspan x="10" y="2730">  │ └─┬ babel-plugin-transform-regenerator@6.24.1 </tspan>
<tspan x="10" y="2746">  │   └── regenerator-transform@0.9.11 </tspan>
<tspan x="10" y="2762">  ├─┬ babel-preset-stage-1@6.24.1 </tspan>
<tspan x="10" y="2778">  │ ├─┬ babel-plugin-transform-class-constructor-call@6.24.1 </tspan>
<tspan x="10" y="2794">  │ │ └── babel-plugin-syntax-class-constructor-call@6.18.0 </tspan>
<tspan x="10" y="2810">  │ ├─┬ babel-plugin-transform-export-extensions@6.22.0 </tspan>
<tspan x="10" y="2826">  │ │ └── babel-plugin-syntax-export-extensions@6.13.0 </tspan>
<tspan x="10" y="2842">  │ └─┬ babel-preset-stage-2@6.24.1 </tspan>
<tspan x="10" y="2858">  │   ├── babel-plugin-syntax-dynamic-import@6.18.0 </tspan>
<tspan x="10" y="2874">  │   ├─┬ babel-plugin-transform-class-properties@6.24.1 </tspan>
<tspan x="10" y="2890">  │   │ └── babel-plugin-syntax-class-properties@6.13.0 </tspan>
<tspan x="10" y="2906">  │   ├─┬ babel-plugin-transform-decorators@6.24.1 </tspan>
<tspan x="10" y="2922">  │   │ ├─┬ babel-helper-explode-class@6.24.1 </tspan>
<tspan x="10" y="2938">  │   │ │ └── babel-helper-bindify-decorators@6.24.1 </tspan>
<tspan x="10" y="2954">  │   │ └── babel-plugin-syntax-decorators@6.13.0 </tspan>
<tspan x="10" y="2970">  │   └─┬ babel-preset-stage-3@6.24.1 </tspan>
<tspan x="10" y="2986">  │     ├── babel-plugin-syntax-trailing-function-commas@6.22.0 </tspan>
<tspan x="10" y="3002">  │     ├─┬ babel-plugin-transform-async-generator-functions@6.24.1 </tspan>
<tspan x="10" y="3018">  │     │ ├── babel-helper-remap-async-to-generator@6.24.1 </tspan>
<tspan x="10" y="3034">  │     │ └── babel-plugin-syntax-async-generators@6.13.0 </tspan>
<tspan x="10" y="3050">  │     ├─┬ babel-plugin-transform-async-to-generator@6.24.1 </tspan>
<tspan x="10" y="3066">  │     │ └── babel-plugin-syntax-async-functions@6.13.0 </tspan>
<tspan x="10" y="3082">  │     ├─┬ babel-plugin-transform-exponentiation-operator@6.24.1 </tspan>
<tspan x="10" y="3098">  │     │ ├─┬ babel-helper-builder-binary-assignment-operator-visitor@6.24.1 </tspan>
<tspan x="10" y="3114">  │     │ │ └── babel-helper-explode-assignable-expression@6.24.1 </tspan>
<tspan x="10" y="3130">  │     │ └── babel-plugin-syntax-exponentiation-operator@6.13.0 </tspan>
<tspan x="10" y="3146">  │     └─┬ babel-plugin-transform-object-rest-spread@6.23.0 </tspan>
<tspan x="10" y="3162">  │       └── babel-plugin-syntax-object-rest-spread@6.13.0 </tspan>
<tspan x="10" y="3178">  ├─┬ babel-register@6.24.1 </tspan>
<tspan x="10" y="3194">  │ ├─┬ babel-core@6.24.1 </tspan>
<tspan x="10" y="3210">  │ │ ├─┬ babel-code-frame@6.22.0 </tspan>
<tspan x="10" y="3226">  │ │ │ └── js-tokens@3.0.1 </tspan>
<tspan x="10" y="3242">  │ │ ├─┬ babel-generator@6.24.1 </tspan>
<tspan x="10" y="3258">  │ │ │ ├─┬ detect-indent@4.0.0 </tspan>
<tspan x="10" y="3274">  │ │ │ │ └── repeating@2.0.1 </tspan>
<tspan x="10" y="3290">  │ │ │ └── jsesc@1.3.0 </tspan>
<tspan x="10" y="3306">  │ │ ├── babel-helpers@6.24.1 </tspan>
<tspan x="10" y="3322">  │ │ ├── json5@0.5.1 </tspan>
<tspan x="10" y="3338">  │ │ └── minimatch@3.0.3 </tspan>
<tspan x="10" y="3354">  │ ├── core-js@2.4.1 </tspan>
<tspan x="10" y="3370">  │ ├─┬ home-or-tmp@2.0.0 </tspan>
<tspan x="10" y="3386">  │ │ └── os-homedir@1.0.2 </tspan>
<tspan x="10" y="3402">  │ ├─┬ mkdirp@0.5.1 </tspan>
<tspan x="10" y="3418">  │ │ └── minimist@0.0.8 </tspan>
<tspan x="10" y="3434">  │ └── source-map-support@0.4.14 </tspan>
<tspan x="10" y="3450">  ├── babylon@6.17.0 </tspan>
<tspan x="10" y="3466">  ├── colors@1.1.2 </tspan>
<tspan x="10" y="3482">  ├── es6-promise@3.3.1 </tspan>
<tspan x="10" y="3498">  ├── flow-parser@0.44.0 </tspan>
<tspan x="10" y="3514">  ├── lodash@4.17.4 </tspan>
<tspan x="10" y="3530">  ├─┬ micromatch@2.3.11 </tspan>
<tspan x="10" y="3546">  │ ├─┬ arr-diff@2.0.0 </tspan>
<tspan x="10" y="3562">  │ │ └── arr-flatten@1.0.3 </tspan>
<tspan x="10" y="3578">  │ ├── array-unique@0.2.1 </tspan>
<tspan x="10" y="3594">  │ ├─┬ braces@1.8.5 </tspan>
<tspan x="10" y="3610">  │ │ ├─┬ expand-range@1.8.2 </tspan>
<tspan x="10" y="3626">  │ │ │ └─┬ fill-range@2.2.3 </tspan>
<tspan x="10" y="3642">  │ │ │   ├── is-number@2.1.0 </tspan>
<tspan x="10" y="3658">  │ │ │   ├─┬ isobject@2.1.0 </tspan>
<tspan x="10" y="3674">  │ │ │   │ └── isarray@1.0.0 </tspan>
<tspan x="10" y="3690">  │ │ │   ├── randomatic@1.1.6 </tspan>
<tspan x="10" y="3706">  │ │ │   └── repeat-string@1.6.1 </tspan>
<tspan x="10" y="3722">  │ │ ├── preserve@0.2.0 </tspan>
<tspan x="10" y="3738">  │ │ └── repeat-element@1.1.2 </tspan>
<tspan x="10" y="3754">  │ ├─┬ expand-brackets@0.1.5 </tspan>
<tspan x="10" y="3770">  │ │ └── is-posix-bracket@0.1.1 </tspan>
<tspan x="10" y="3786">  │ ├── extglob@0.3.2 </tspan>
<tspan x="10" y="3802">  │ ├── filename-regex@2.0.0 </tspan>
<tspan x="10" y="3818">  │ ├── is-extglob@1.0.0 </tspan>
<tspan x="10" y="3834">  │ ├── is-glob@2.0.1 </tspan>
<tspan x="10" y="3850">  │ ├─┬ kind-of@3.1.0 </tspan>
<tspan x="10" y="3866">  │ │ └── is-buffer@1.1.5 </tspan>
<tspan x="10" y="3882">  │ ├─┬ normalize-path@2.1.1 </tspan>
<tspan x="10" y="3898">  │ │ └── remove-trailing-separator@1.0.1 </tspan>
<tspan x="10" y="3914">  │ ├─┬ object.omit@2.0.1 </tspan>
<tspan x="10" y="3930">  │ │ ├─┬ for-own@0.1.5 </tspan>
<tspan x="10" y="3946">  │ │ │ └── for-in@1.0.2 </tspan>
<tspan x="10" y="3962">  │ │ └── is-extendable@0.1.1 </tspan>
<tspan x="10" y="3978">  │ ├─┬ parse-glob@3.0.4 </tspan>
<tspan x="10" y="3994">  │ │ ├─┬ glob-base@0.3.0 </tspan>
<tspan x="10" y="4010">  │ │ │ └── glob-parent@2.0.0 </tspan>
<tspan x="10" y="4026">  │ │ └── is-dotfile@1.0.2 </tspan>
<tspan x="10" y="4042">  │ └─┬ regex-cache@0.4.3 </tspan>
<tspan x="10" y="4058">  │   ├── is-equal-shallow@0.1.3 </tspan>
<tspan x="10" y="4074">  │   └── is-primitive@2.0.0 </tspan>
<tspan x="10" y="4090">  ├── node-dir@0.1.8 </tspan>
<tspan x="10" y="4106">  ├─┬ nomnom@1.8.1 </tspan>
<tspan x="10" y="4122">  │ ├─┬ chalk@0.4.0 </tspan>
<tspan x="10" y="4138">  │ │ ├── ansi-styles@1.0.0 </tspan>
<tspan x="10" y="4154">  │ │ ├── has-color@0.1.7 </tspan>
<tspan x="10" y="4170">  │ │ └── strip-ansi@0.1.1 </tspan>
<tspan x="10" y="4186">  │ └── underscore@1.6.0 </tspan>
<tspan x="10" y="4202">  ├─┬ recast@0.11.23 </tspan>
<tspan x="10" y="4218">  │ ├── ast-types@0.9.6 </tspan>
<tspan x="10" y="4234">  │ └── esprima@3.1.3 </tspan>
<tspan x="10" y="4250">  ├─┬ temp@0.8.3 </tspan>
<tspan x="10" y="4266">  │ ├── os-tmpdir@1.0.2 </tspan>
<tspan x="10" y="4282">  │ └── rimraf@2.2.8 </tspan>
<tspan x="10" y="4298">  └─┬ write-file-atomic@1.3.2 </tspan>
<tspan x="10" y="4314">    ├── graceful-fs@4.1.11 </tspan>
<tspan x="10" y="4330">    ├── imurmurhash@0.1.4 </tspan>
<tspan x="10" y="4346">    └── slide@1.1.6</tspan>
</text>
</svg>
